<?xml version="1.0" encoding="UTF-8" standalone="no"?>
<!-- Created with Inkscape (http://www.inkscape.org/) -->

<svg
   width="420mm"
   height="320mm"
   viewBox="0 0 420 320"
   version="1.1"
   id="svg1"
   inkscape:version="1.3.2 (091e20e, 2023-11-25, custom)"
   sodipodi:docname="level_template.svg"
   inkscape:export-filename="Desktop\level_template.svg"
   inkscape:export-xdpi="96"
   inkscape:export-ydpi="96"
   xmlns:inkscape="http://www.inkscape.org/namespaces/inkscape"
   xmlns:sodipodi="http://sodipodi.sourceforge.net/DTD/sodipodi-0.dtd"
   xmlns="http://www.w3.org/2000/svg"
   xmlns:svg="http://www.w3.org/2000/svg">
  <sodipodi:namedview
     id="namedview1"
     pagecolor="#bfbfbf"
     bordercolor="#eeeeee"
     borderopacity="1"
     inkscape:showpageshadow="0"
     inkscape:pageopacity="0"
     inkscape:pagecheckerboard="true"
     inkscape:deskcolor="#505050"
     inkscape:document-units="mm"
     inkscape:lockguides="false"
     showguides="true"
     showgrid="true"
     inkscape:clip-to-page="false"
     inkscape:zoom="0.4059887"
     inkscape:cx="1076.3846"
     inkscape:cy="-264.78569"
     inkscape:window-width="2560"
     inkscape:window-height="1566"
     inkscape:window-x="-11"
     inkscape:window-y="-11"
     inkscape:window-maximized="1"
     inkscape:current-layer="layer1">
    <inkscape:grid
       id="grid1"
       units="mm"
       originx="59.999999"
       originy="59.999999"
       spacingx="0.99999999"
       spacingy="0.99999998"
       empcolor="#0099e5"
       empopacity="0.30196078"
       color="#56e500"
       opacity="0.14901961"
       empspacing="10"
       dotted="false"
       gridanglex="30"
       gridanglez="30"
       visible="true"
       snapvisiblegridlinesonly="true" />
  </sodipodi:namedview>
  <defs
     id="defs1" />
  <g
     inkscape:label="Layer 1"
     inkscape:groupmode="layer"
     id="layer1"
     transform="translate(60,60)">
    <path
       id="rect9"
       style="fill:#000000;stroke-width:0.264583"
       d="M 59.999812,10 A 20,20 0 0 1 39.999999,29.999814 h 19.999813 z"
       inkscape:label="rect9" />
    <path
       id="rect10"
       style="stroke-width:0.264583"
       d="M 70,10 H 90 V 30 H 70 Z" />
    <path
       id="pad1"
       style="stroke-width:2.10006"
       d="M -60,-60 H 360 V -1.175e-7 H -60 Z"
       inkscape:label="pad" />
    <path
       id="pad4"
       style="stroke-width:1.44918"
       d="M -60,0 H 0 V 200 h -60 z"
       inkscape:label="pad" />
    <path
       id="pad2"
       style="stroke-width:1.44918"
       d="m 300,0 h 60 V 200 h -60 z"
       inkscape:label="pad" />
    <path
       id="pad3"
       style="stroke-width:2.10006"
       d="m -60,200 h 420 v 60 H -60 Z"
       inkscape:label="pad" />
    <path
       id="g_hole"
       style="fill:#668000;stroke-width:0.264583"
       d="M 110,9.9999064 A 10,10 0 0 0 100.0001,19.999813 10,10 0 0 0 110,30.000236 10,10 0 0 0 119.99991,19.999813 10,10 0 0 0 110,9.9999064 Z m 0,0.9999386 a 9,9 0 0 1 8.99997,8.999968 A 9,9 0 0 1 110,28.99978 9,9 0 0 1 101.00004,19.999813 9,9 0 0 1 110,10.999845 Z"
       inkscape:label="g_hole" />
    <path
       id="b_hole"
       style="fill:#aa0000;stroke-width:0.264583"
       d="m 147.07091,12.928883 a 10,10 0 0 0 -14.14201,7e-6 10,10 0 0 0 -3.6e-4,14.142362 10,10 0 0 0 14.14237,-3.61e-4 10,10 0 0 0 0,-14.142008 z m -1.08818,0.381484 -5.98283,5.982823 -5.98281,-5.982816 a 9,9 0 0 1 11.96564,-7e-6 z m 0.70706,0.707064 a 9,9 0 0 1 -3.7e-4,11.96528 l -5.98245,-5.982456 z m -13.37976,0 5.98281,5.982817 -5.98245,5.982455 a 9,9 0 0 1 -3.6e-4,-11.965272 z m 6.68988,6.689881 5.98245,5.982456 a 9,9 0 0 1 -11.96491,0 z"
       inkscape:label="b_hole" />
  </g>
</svg>
