<?xml version="1.0" encoding="UTF-8" standalone="no"?>
<!-- Created with Inkscape (http://www.inkscape.org/) -->

<svg
   width="420mm"
   height="320mm"
   viewBox="0 0 420 320"
   version="1.1"
   id="svg1"
   inkscape:version="1.4 (86a8ad7, 2024-10-11)"
   sodipodi:docname="level_5.svg"
   inkscape:export-filename="Desktop\level_template.svg"
   inkscape:export-xdpi="96"
   inkscape:export-ydpi="96"
   xmlns:inkscape="http://www.inkscape.org/namespaces/inkscape"
   xmlns:sodipodi="http://sodipodi.sourceforge.net/DTD/sodipodi-0.dtd"
   xmlns="http://www.w3.org/2000/svg"
   xmlns:svg="http://www.w3.org/2000/svg">
  <sodipodi:namedview
     id="namedview1"
     pagecolor="#bfbfbf"
     bordercolor="#eeeeee"
     borderopacity="1"
     inkscape:showpageshadow="0"
     inkscape:pageopacity="0"
     inkscape:pagecheckerboard="true"
     inkscape:deskcolor="#505050"
     inkscape:document-units="mm"
     inkscape:lockguides="false"
     showguides="true"
     showgrid="true"
     inkscape:clip-to-page="false"
     inkscape:zoom="0.8119774"
     inkscape:cx="706.91623"
     inkscape:cy="565.90245"
     inkscape:window-width="1920"
     inkscape:window-height="974"
     inkscape:window-x="-11"
     inkscape:window-y="-11"
     inkscape:window-maximized="1"
     inkscape:current-layer="layer1">
    <inkscape:grid
       id="grid1"
       units="mm"
       originx="59.999999"
       originy="59.999999"
       spacingx="0.99999999"
       spacingy="0.99999998"
       empcolor="#0099e5"
       empopacity="0.30196078"
       color="#56e500"
       opacity="0.14901961"
       empspacing="10"
       dotted="false"
       gridanglex="30"
       gridanglez="30"
       visible="true"
       snapvisiblegridlinesonly="true" />
  </sodipodi:namedview>
  <defs
     id="defs1" />
  <g
     inkscape:label="Layer 1"
     inkscape:groupmode="layer"
     id="layer1"
     transform="translate(60,60)">
    <path
       id="rect9-3-9"
       style="fill:#000000;stroke-width:0.264583"
       d="m 300.66641,180.65173 a 20,20 0 0 1 -20.39021,19.60164 l 19.99593,0.39429 z"
       inkscape:label="rect9" />
    <path
       id="rect9-3-9-3"
       style="fill:#000000;stroke-width:0.264583"
       d="M 229.84077,31.64411 A 20,20 0 0 1 210.06664,51.867083 L 230.0652,51.642667 Z"
       inkscape:label="rect9" />
    <path
       id="rect9-3-9-3-1"
       style="fill:#000000;stroke-width:0.264583"
       d="M 299.76412,31.016663 A 20,20 0 0 1 279.98999,51.239636 L 299.98855,51.01522 Z"
       inkscape:label="rect9" />
    <path
       id="rect10-4-6-0"
       style="stroke-width:0.693073"
       d="M 19.505194,169.88124 H 279.65709 v 10.55034 H 19.505194 Z" />
    <path
       id="rect10-4-6-0-7"
       style="stroke-width:0.638867"
       d="m 79.838,140.12847 h 221.04982 v 10.55034 H 79.838 Z" />
    <path
       id="pad1"
       style="stroke-width:2.10006"
       d="M -60,-60 H 360 V -1.175e-7 H -60 Z"
       inkscape:label="pad" />
    <path
       id="pad4"
       style="stroke-width:1.44918"
       d="M -60,0 H 0 V 200 h -60 z"
       inkscape:label="pad" />
    <path
       id="pad2"
       style="stroke-width:1.44918"
       d="m 300,0 h 60 V 200 h -60 z"
       inkscape:label="pad" />
    <path
       id="pad3"
       style="stroke-width:2.1171"
       d="M -60.325851,199.75494 H 359.67415 v 60.97755 H -60.325851 Z"
       inkscape:label="pad" />
    <path
       id="g_hole"
       style="fill:#668000;stroke-width:0.264583"
       d="m 289.86954,0.67276873 a 10,10 0 0 0 -9.9999,9.99990927 10,10 0 0 0 9.9999,10.00042 10,10 0 0 0 9.99991,-10.00042 10,10 0 0 0 -9.99991,-9.99990927 z m 0,0.99993997 a 9,9 0 0 1 8.99997,8.9999693 9,9 0 0 1 -8.99997,8.99997 9,9 0 0 1 -8.99996,-8.99997 9,9 0 0 1 8.99996,-8.9999693 z"
       inkscape:label="g_hole" />
    <path
       id="b_hole"
       style="fill:#aa0000;stroke-width:0.264583"
       d="m 197.11032,123.71809 a 10,10 0 0 0 -14.14202,1e-5 10,10 0 0 0 -3.6e-4,14.14236 10,10 0 0 0 14.14238,-3.6e-4 10,10 0 0 0 0,-14.14201 z m -1.08818,0.38149 -5.98283,5.98282 -5.98282,-5.98281 a 9,9 0 0 1 11.96565,-1e-5 z m 0.70706,0.70706 a 9,9 0 0 1 -3.7e-4,11.96528 l -5.98245,-5.98245 z m -13.37977,0 5.98282,5.98282 -5.98246,5.98245 a 9,9 0 0 1 -3.6e-4,-11.96527 z m 6.68989,6.68988 5.98245,5.98246 a 9,9 0 0 1 -11.96492,0 z"
       inkscape:label="b_hole" />
    <path
       id="b_hole-61"
       style="fill:#aa0000;stroke-width:0.264583"
       d="m 296.92879,124.75616 a 10,10 0 0 0 -14.14202,1e-5 10,10 0 0 0 -3.6e-4,14.14236 10,10 0 0 0 14.14238,-3.6e-4 10,10 0 0 0 0,-14.14201 z m -1.08818,0.38149 -5.98283,5.98282 -5.98282,-5.98281 a 9,9 0 0 1 11.96565,-1e-5 z m 0.70706,0.70706 a 9,9 0 0 1 -3.7e-4,11.96528 l -5.98245,-5.98245 z m -13.37977,0 5.98282,5.98282 -5.98246,5.98245 a 9,9 0 0 1 -3.6e-4,-11.96527 z m 6.68989,6.68988 5.98245,5.98246 a 9,9 0 0 1 -11.96492,0 z"
       inkscape:label="b_hole" />
    <path
       id="b_hole-1"
       style="fill:#aa0000;stroke-width:0.264583"
       d="m 106.755,93.638788 a 10,10 0 0 0 -14.142015,10e-6 10,10 0 0 0 -3.6e-4,14.142362 10,10 0 0 0 14.142375,-3.6e-4 10,10 0 0 0 0,-14.142012 z m -1.08818,0.38149 -5.982825,5.982822 -5.98282,-5.982812 a 9,9 0 0 1 11.965645,-10e-6 z m 0.70706,0.70706 a 9,9 0 0 1 -3.7e-4,11.965282 l -5.98245,-5.98245 z m -13.379765,0 5.98282,5.982822 -5.98246,5.98245 a 9,9 0 0 1 -3.6e-4,-11.965272 z m 6.68989,6.689882 5.982445,5.98246 a 9,9 0 0 1 -11.964915,0 z"
       inkscape:label="b_hole" />
    <path
       id="b_hole-0"
       style="fill:#aa0000;stroke-width:0.264583"
       d="m 196.86768,63.537558 a 10,10 0 0 0 -14.14202,1e-5 10,10 0 0 0 -3.6e-4,14.142363 10,10 0 0 0 14.14238,-3.6e-4 10,10 0 0 0 0,-14.142013 z m -1.08818,0.38149 -5.98283,5.982823 -5.98282,-5.982813 a 9,9 0 0 1 11.96565,-1e-5 z m 0.70706,0.70706 a 9,9 0 0 1 -3.7e-4,11.965283 l -5.98245,-5.98245 z m -13.37977,0 5.98282,5.982823 -5.98246,5.98245 a 9,9 0 0 1 -3.6e-4,-11.965273 z m 6.68989,6.689883 5.98245,5.98246 a 9,9 0 0 1 -11.96492,0 z"
       inkscape:label="b_hole" />
    <path
       id="b_hole-8"
       style="fill:#aa0000;stroke-width:0.264583"
       d="m 77.215641,93.476787 a 10,10 0 0 0 -14.14202,1e-5 10,10 0 0 0 -3.6e-4,14.142363 10,10 0 0 0 14.14238,-3.6e-4 10,10 0 0 0 0,-14.142013 z m -1.08818,0.38149 -5.98283,5.98282 -5.98282,-5.98281 a 9,9 0 0 1 11.96565,-1e-5 z m 0.70706,0.70706 a 9,9 0 0 1 -3.7e-4,11.965283 l -5.98245,-5.98245 z m -13.37977,0 5.98282,5.982823 -5.98246,5.98245 a 9,9 0 0 1 -3.6e-4,-11.965273 z m 6.68989,6.689883 5.98245,5.98246 a 9,9 0 0 1 -11.96492,0 z"
       inkscape:label="b_hole" />
    <path
       id="b_hole-34"
       style="fill:#aa0000;stroke-width:0.264583"
       d="m 47.4566,34.884502 a 10,10 0 0 0 -14.142017,1e-5 10,10 0 0 0 -3.6e-4,14.14236 10,10 0 0 0 14.142377,-3.6e-4 10,10 0 0 0 0,-14.14201 z m -1.08818,0.38149 -5.98283,5.98282 -5.982817,-5.98281 a 9,9 0 0 1 11.965647,-1e-5 z m 0.70706,0.70706 a 9,9 0 0 1 -3.7e-4,11.96528 l -5.98245,-5.98245 z m -13.379767,0 5.982817,5.98282 -5.982457,5.98245 a 9,9 0 0 1 -3.6e-4,-11.96527 z m 6.689887,6.68988 5.98245,5.98246 a 9,9 0 0 1 -11.964917,0 z"
       inkscape:label="b_hole" />
    <path
       id="b_hole-34-2"
       style="fill:#aa0000;stroke-width:0.264583"
       d="m 46.66197,3.6191885 a 10,10 0 0 0 -14.142017,1e-5 10,10 0 0 0 -3.6e-4,14.1423595 10,10 0 0 0 14.142377,-3.6e-4 10,10 0 0 0 0,-14.1420095 z m -1.08818,0.38149 -5.98283,5.98282 -5.982817,-5.98281 a 9,9 0 0 1 11.965647,-10e-6 z m 0.70706,0.70706 a 9,9 0 0 1 -3.7e-4,11.9652795 l -5.98245,-5.98245 z m -13.379767,0 5.982817,5.9828195 -5.982457,5.98245 a 9,9 0 0 1 -3.6e-4,-11.9652695 z m 6.689887,6.6898795 5.98245,5.98246 a 9,9 0 0 1 -11.964917,0 z"
       inkscape:label="b_hole" />
    <path
       id="rect10-4-6-0-2-6"
       style="stroke-width:0.509452"
       d="m 138.97985,111.13549 h 140.56471 v 10.55034 H 138.97985 Z" />
    <path
       id="rect10-4-6-0-4"
       style="stroke-width:0.427234"
       d="m 52.157044,80.446993 h 98.855846 v 10.55034 H 52.157044 Z" />
    <path
       id="rect10-4-6-0-4-2"
       style="stroke-width:0.450539"
       d="m 169.46776,80.142939 h 109.93476 v 10.55034 H 169.46776 Z" />
    <path
       id="rect10-4-6-0-1"
       style="stroke-width:0.27792"
       d="m 19.213437,51.086414 h 41.831988 v 10.55034 H 19.213437 Z" />
    <path
       id="rect10-4-6-0-1-0"
       style="stroke-width:0.320191"
       d="M 60.529748,-0.2981259 H 90.305267 V 19.376031 H 60.529748 Z" />
    <path
       id="rect10-4-6-0-1-8"
       style="stroke-width:0.403329"
       d="m 212.54949,50.941202 h 88.10277 v 10.55034 h -88.10277 z" />
    <path
       id="rect10-4-6-0-73"
       style="stroke-width:0.239551"
       d="m 20.091651,21.227525 h 31.078911 v 10.55034 H 20.091651 Z" />
    <path
       id="rect10-4-6-0-73-8"
       style="stroke-width:0.475868"
       d="m 109.07332,21.814794 h 122.64293 v 10.55034 H 109.07332 Z" />
    <path
       id="rect10-4-6-0-73-8-4"
       style="stroke-width:0.381875"
       d="m 90.547918,49.860184 h 78.978952 v 10.55034 H 90.547918 Z" />
    <path
       id="rect10-4-6-0-9"
       style="stroke-width:0.414778"
       d="M 19.560201,80.267312 H 30.436379 V 170.65105 H 19.560201 Z" />
    <path
       id="rect10-4-6-0-9-3"
       style="stroke-width:0.273245"
       d="M 79.473562,80.548684 H 90.34974 V 119.77388 H 79.473562 Z" />
    <path
       id="rect10-4-6-0-9-3-7"
       style="stroke-width:0.236761"
       d="m 79.675038,150.37284 h 10.876178 v 29.44967 H 79.675038 Z" />
    <path
       id="rect10-4-6-0-9-3-4-5"
       style="stroke-width:0.282179"
       d="m 169.46319,49.655026 h 10.87618 v 41.832 h -10.87618 z" />
    <path
       id="rect10-4-6-0-9-3-4-5-1"
       style="stroke-width:0.272108"
       d="m 199.53084,110.82378 h 10.87618 v 38.89935 h -10.87618 z" />
    <path
       id="rect10-4-6-0-9-3-4-5-6"
       style="stroke-width:0.269819"
       d="m 230.07774,21.480768 h 10.87618 v 38.247649 h -10.87618 z" />
    <path
       id="rect10-4-6-0-9-2"
       style="stroke-width:0.517859"
       d="M 50.05805,-0.64076968 H 60.934228 V 140.24981 H 50.05805 Z" />
    <path
       id="rect10-4-6-0-9-2-2"
       style="stroke-width:0.238067"
       d="m 109.34924,88.768 h 10.87618 v 29.77552 h -10.87618 z" />
    <path
       id="b_hole-6"
       style="fill:#aa0000;stroke-width:0.264583"
       d="m 137.49528,34.249148 a 10,10 0 0 0 -14.14202,1e-5 10,10 0 0 0 -3.6e-4,14.14236 10,10 0 0 0 14.14238,-3.6e-4 10,10 0 0 0 0,-14.14201 z m -1.08818,0.38149 -5.98283,5.98282 -5.98282,-5.98281 a 9,9 0 0 1 11.96565,-1e-5 z m 0.70706,0.70706 a 9,9 0 0 1 -3.7e-4,11.96528 l -5.98245,-5.98245 z m -13.37977,0 5.98282,5.98282 -5.98246,5.98245 a 9,9 0 0 1 -3.6e-4,-11.96527 z m 6.68989,6.68988 5.98245,5.98246 a 9,9 0 0 1 -11.96492,0 z"
       inkscape:label="b_hole" />
    <path
       id="b_hole-14-9"
       style="fill:#aa0000;stroke-width:0.264583"
       d="m 80.874005,24.863472 a 10,10 0 0 0 -14.14202,10e-6 10,10 0 0 0 -3.6e-4,14.14236 10,10 0 0 0 14.14238,-3.6e-4 10,10 0 0 0 0,-14.14201 z m -1.08818,0.38149 -5.98283,5.98282 -5.98282,-5.98281 a 9,9 0 0 1 11.96565,-10e-6 z m 0.70706,0.70706 a 9,9 0 0 1 -3.7e-4,11.96528 l -5.98245,-5.98245 z m -13.37977,0 5.98282,5.98282 -5.98246,5.98245 a 9,9 0 0 1 -3.6e-4,-11.96527 z m 6.68989,6.68988 5.98245,5.98246 a 9,9 0 0 1 -11.96492,0 z"
       inkscape:label="b_hole" />
    <path
       id="b_hole-6-3"
       style="fill:#aa0000;stroke-width:0.264583"
       d="m 257.85396,34.900847 a 10,10 0 0 0 -14.14202,1e-5 10,10 0 0 0 -3.6e-4,14.14236 10,10 0 0 0 14.14238,-3.6e-4 10,10 0 0 0 0,-14.14201 z m -1.08818,0.38149 -5.98283,5.98282 -5.98282,-5.98281 a 9,9 0 0 1 11.96565,-1e-5 z m 0.70706,0.70706 a 9,9 0 0 1 -3.7e-4,11.96528 l -5.98245,-5.98245 z m -13.37977,0 5.98282,5.98282 -5.98246,5.98245 a 9,9 0 0 1 -3.6e-4,-11.96527 z m 6.68989,6.68988 5.98245,5.98246 a 9,9 0 0 1 -11.96492,0 z"
       inkscape:label="b_hole" />
    <path
       id="b_hole-88"
       style="fill:#aa0000;stroke-width:0.264583"
       d="m 220.86082,96.12262 a 10,10 0 0 0 -14.14202,1e-5 10,10 0 0 0 -3.6e-4,14.14236 10,10 0 0 0 14.14238,-3.6e-4 10,10 0 0 0 0,-14.14201 z m -1.08818,0.38149 -5.98283,5.98282 -5.98282,-5.98281 a 9,9 0 0 1 11.96565,-1e-5 z m 0.70706,0.70706 a 9,9 0 0 1 -3.7e-4,11.96528 l -5.98245,-5.98245 z m -13.37977,0 5.98282,5.98282 -5.98246,5.98245 a 9,9 0 0 1 -3.6e-4,-11.96527 z m 6.68989,6.68988 5.98245,5.98246 a 9,9 0 0 1 -11.96492,0 z"
       inkscape:label="b_hole" />
    <path
       id="b_hole-5"
       style="fill:#aa0000;stroke-width:0.264583"
       d="m 265.38888,94.493367 a 10,10 0 0 0 -14.14202,10e-6 10,10 0 0 0 -3.6e-4,14.142363 10,10 0 0 0 14.14238,-3.6e-4 10,10 0 0 0 0,-14.142013 z m -1.08818,0.38149 -5.98283,5.982823 -5.98282,-5.982813 a 9,9 0 0 1 11.96565,-10e-6 z m 0.70706,0.70706 a 9,9 0 0 1 -3.7e-4,11.965283 l -5.98245,-5.98245 z m -13.37977,0 5.98282,5.982823 -5.98246,5.98245 a 9,9 0 0 1 -3.6e-4,-11.965273 z m 6.68989,6.689883 5.98245,5.98246 a 9,9 0 0 1 -11.96492,0 z"
       inkscape:label="b_hole" />
    <path
       id="b_hole-15"
       style="fill:#aa0000;stroke-width:0.264583"
       d="m 185.49561,94.941752 a 10,10 0 0 0 -14.14202,1e-5 10,10 0 0 0 -3.6e-4,14.142358 10,10 0 0 0 14.14238,-3.6e-4 10,10 0 0 0 0,-14.142008 z m -1.08818,0.38149 -5.98283,5.982818 -5.98282,-5.982808 a 9,9 0 0 1 11.96565,-1e-5 z m 0.70706,0.70706 a 9,9 0 0 1 -3.7e-4,11.965278 l -5.98245,-5.98245 z m -13.37977,0 5.98282,5.982818 -5.98246,5.98245 a 9,9 0 0 1 -3.6e-4,-11.965268 z m 6.68989,6.689878 5.98245,5.98246 a 9,9 0 0 1 -11.96492,0 z"
       inkscape:label="b_hole" />
    <path
       id="b_hole-57"
       style="fill:#aa0000;stroke-width:0.264583"
       d="m 124.55249,153.80179 a 10,10 0 0 0 -14.14202,10e-6 10,10 0 0 0 -3.6e-4,14.14236 10,10 0 0 0 14.14238,-3.6e-4 10,10 0 0 0 0,-14.14201 z m -1.08818,0.38149 -5.98283,5.98282 -5.98282,-5.98281 a 9,9 0 0 1 11.96565,-1e-5 z m 0.70706,0.70706 a 9,9 0 0 1 -3.7e-4,11.96528 l -5.98245,-5.98245 z m -13.37977,0 5.98282,5.98282 -5.98246,5.98245 a 9,9 0 0 1 -3.6e-4,-11.96527 z m 6.68989,6.68988 5.98245,5.98246 a 9,9 0 0 1 -11.96492,0 z"
       inkscape:label="b_hole" />
    <rect
       style="fill:#000000;stroke-width:0.264583"
       id="rect2"
       width="11.730621"
       height="8.797966"
       x="140.39812"
       y="121.17294" />
    <rect
       style="fill:#000000;stroke-width:0.264583"
       id="rect3"
       width="10.75307"
       height="11.404772"
       x="159.94917"
       y="131.60016" />
    <rect
       style="fill:#000000;stroke-width:0.264583"
       id="rect4"
       width="11.730621"
       height="12.708174"
       x="140.39812"
       y="98.037544" />
    <rect
       style="fill:#000000;stroke-width:0.264583"
       id="rect5"
       width="15.96668"
       height="9.449667"
       x="154.08385"
       y="59.26133" />
    <rect
       style="fill:#000000;stroke-width:0.264583"
       id="rect6"
       width="17.595932"
       height="5.5394602"
       x="131.92601"
       y="75.227997" />
    <rect
       style="fill:#000000;stroke-width:0.264583"
       id="rect7"
       width="14.663278"
       height="9.1238174"
       x="110.41986"
       y="60.238876" />
    <rect
       style="fill:#000000;stroke-width:0.264583"
       id="rect8"
       width="13.685726"
       height="6.5170121"
       x="90.868828"
       y="73.924599" />
    <rect
       style="fill:#000000;stroke-width:0.264583"
       id="rect9"
       width="15.96668"
       height="23.135393"
       x="60.564724"
       y="58.609619" />
    <rect
       style="fill:#000000;stroke-width:0.264583"
       id="rect10"
       width="10.101376"
       height="21.506138"
       x="192.86006"
       y="89.891281" />
    <path
       id="b_hole-14"
       style="fill:#aa0000;stroke-width:0.264583"
       d="m 39.354816,184.22614 a 10,10 0 0 0 -14.14202,1e-5 10,10 0 0 0 -3.6e-4,14.14236 10,10 0 0 0 14.14238,-3.6e-4 10,10 0 0 0 0,-14.14201 z m -1.08818,0.38149 -5.98283,5.98282 -5.98282,-5.98281 a 9,9 0 0 1 11.96565,-1e-5 z m 0.70706,0.70706 a 9,9 0 0 1 -3.7e-4,11.96528 l -5.98245,-5.98245 z m -13.37977,0 5.98282,5.98282 -5.98246,5.98246 a 9,9 0 0 1 -3.6e-4,-11.96528 z m 6.68989,6.68988 5.98245,5.98246 a 9,9 0 0 1 -11.96492,0 z"
       inkscape:label="b_hole" />
    <path
       id="b_hole-14-1"
       style="fill:#aa0000;stroke-width:0.264583"
       d="m 125.5296,183.94204 a 10,10 0 0 0 -14.14202,1e-5 10,10 0 0 0 -3.6e-4,14.14236 10,10 0 0 0 14.14238,-3.6e-4 10,10 0 0 0 0,-14.14201 z m -1.08818,0.38149 -5.98283,5.98282 -5.98282,-5.98281 a 9,9 0 0 1 11.96565,-1e-5 z m 0.70706,0.70706 a 9,9 0 0 1 -3.7e-4,11.96528 l -5.98245,-5.98245 z m -13.37977,0 5.98282,5.98282 -5.98246,5.98245 a 9,9 0 0 1 -3.6e-4,-11.96527 z m 6.68989,6.68988 5.98245,5.98246 a 9,9 0 0 1 -11.96492,0 z"
       inkscape:label="b_hole" />
    <path
       id="b_hole-14-4"
       style="fill:#aa0000;stroke-width:0.264583"
       d="m 203.89708,182.88643 a 10,10 0 0 0 -14.14202,1e-5 10,10 0 0 0 -3.6e-4,14.14237 10,10 0 0 0 14.14238,-3.6e-4 10,10 0 0 0 0,-14.14202 z m -1.08818,0.38149 -5.98283,5.98283 -5.98282,-5.98282 a 9,9 0 0 1 11.96565,-1e-5 z m 0.70706,0.70706 a 9,9 0 0 1 -3.7e-4,11.96528 l -5.98245,-5.98245 z m -13.37977,0 5.98282,5.98282 -5.98246,5.98246 a 9,9 0 0 1 -3.6e-4,-11.96528 z m 6.68989,6.68988 5.98245,5.98247 a 9,9 0 0 1 -11.96492,0 z"
       inkscape:label="b_hole" />
    <path
       id="b_hole-14-8"
       style="fill:#aa0000;stroke-width:0.264583"
       d="m 295.02494,157.13835 a 10,10 0 0 0 -14.14202,1e-5 10,10 0 0 0 -3.6e-4,14.14236 10,10 0 0 0 14.14238,-3.6e-4 10,10 0 0 0 0,-14.14201 z m -1.08818,0.38149 -5.98283,5.98282 -5.98282,-5.98281 a 9,9 0 0 1 11.96565,-1e-5 z m 0.70706,0.70706 a 9,9 0 0 1 -3.7e-4,11.96528 l -5.98245,-5.98245 z m -13.37977,0 5.98282,5.98282 -5.98246,5.98245 a 9,9 0 0 1 -3.6e-4,-11.96527 z m 6.68989,6.68988 5.98245,5.98246 a 9,9 0 0 1 -11.96492,0 z"
       inkscape:label="b_hole" />
    <rect
       style="fill:#000000;stroke-width:0.264583"
       id="rect11"
       width="29.978252"
       height="7.8204107"
       x="100.27579"
       y="77.30455"
       transform="rotate(23.05658)" />
    <path
       id="b_hole-14-7"
       style="fill:#aa0000;stroke-width:0.264583"
       d="m 153.04399,124.41079 a 10,10 0 0 0 -14.14202,10e-6 10,10 0 0 0 -3.6e-4,14.14236 10,10 0 0 0 14.14238,-3.6e-4 10,10 0 0 0 0,-14.14201 z m -1.08818,0.38149 -5.98283,5.98282 -5.98282,-5.98281 a 9,9 0 0 1 11.96565,-10e-6 z m 0.70706,0.70706 a 9,9 0 0 1 -3.7e-4,11.96528 l -5.98245,-5.98245 z m -13.37977,0 5.98282,5.98282 -5.98246,5.98246 a 9,9 0 0 1 -3.6e-4,-11.96528 z m 6.68989,6.68988 5.98245,5.98246 a 9,9 0 0 1 -11.96492,0 z"
       inkscape:label="b_hole" />
    <path
       id="b_hole-14-19"
       style="fill:#aa0000;stroke-width:0.264583"
       d="m 76.885741,151.82444 a 10,10 0 0 0 -14.14202,1e-5 10,10 0 0 0 -3.6e-4,14.14236 10,10 0 0 0 14.14238,-3.6e-4 10,10 0 0 0 0,-14.14201 z m -1.08818,0.38149 -5.98283,5.98282 -5.98282,-5.98281 a 9,9 0 0 1 11.96565,-1e-5 z m 0.70706,0.70706 a 9,9 0 0 1 -3.7e-4,11.96528 l -5.98245,-5.98245 z m -13.37977,0 5.98282,5.98282 -5.98246,5.98246 a 9,9 0 0 1 -3.6e-4,-11.96528 z m 6.68989,6.68988 5.98245,5.98246 a 9,9 0 0 1 -11.96492,0 z"
       inkscape:label="b_hole" />
  </g>
</svg>
