<?xml version="1.0" encoding="UTF-8" standalone="no"?>
<!-- Created with Inkscape (http://www.inkscape.org/) -->

<svg
   width="420mm"
   height="320mm"
   viewBox="0 0 420 320"
   version="1.1"
   id="svg1"
   inkscape:version="1.4 (86a8ad7, 2024-10-11)"
   sodipodi:docname="level_4.svg"
   inkscape:export-filename="Desktop\level_template.svg"
   inkscape:export-xdpi="96"
   inkscape:export-ydpi="96"
   xmlns:inkscape="http://www.inkscape.org/namespaces/inkscape"
   xmlns:sodipodi="http://sodipodi.sourceforge.net/DTD/sodipodi-0.dtd"
   xmlns="http://www.w3.org/2000/svg"
   xmlns:svg="http://www.w3.org/2000/svg">
  <sodipodi:namedview
     id="namedview1"
     pagecolor="#bfbfbf"
     bordercolor="#eeeeee"
     borderopacity="1"
     inkscape:showpageshadow="0"
     inkscape:pageopacity="0"
     inkscape:pagecheckerboard="true"
     inkscape:deskcolor="#505050"
     inkscape:document-units="mm"
     inkscape:lockguides="false"
     showguides="true"
     showgrid="true"
     inkscape:clip-to-page="false"
     inkscape:zoom="0.8119774"
     inkscape:cx="711.84247"
     inkscape:cy="556.04996"
     inkscape:window-width="1920"
     inkscape:window-height="1111"
     inkscape:window-x="-9"
     inkscape:window-y="-9"
     inkscape:window-maximized="1"
     inkscape:current-layer="layer1">
    <inkscape:grid
       id="grid1"
       units="mm"
       originx="59.999999"
       originy="59.999999"
       spacingx="0.99999999"
       spacingy="0.99999998"
       empcolor="#0099e5"
       empopacity="0.30196078"
       color="#56e500"
       opacity="0.14901961"
       empspacing="10"
       dotted="false"
       gridanglex="30"
       gridanglez="30"
       visible="true"
       snapvisiblegridlinesonly="true" />
  </sodipodi:namedview>
  <defs
     id="defs1" />
  <g
     inkscape:label="Layer 1"
     inkscape:groupmode="layer"
     id="layer1"
     transform="translate(60,60)">
    <path
       id="rect9-3-9"
       style="fill:#000000;stroke-width:0.264583"
       d="m 300.66641,180.65173 a 20,20 0 0 1 -20.39021,19.60164 l 19.99593,0.39429 z"
       inkscape:label="rect9" />
    <path
       id="rect9-3-9-3"
       style="fill:#000000;stroke-width:0.264583"
       d="M 229.84077,40.639949 A 20,20 0 0 1 210.06664,60.862922 L 230.0652,60.638506 Z"
       inkscape:label="rect9" />
    <path
       id="rect9-3-9-3-3"
       style="fill:#000000;stroke-width:0.264583"
       d="m 120.62331,90.90757 a 20,20 0 0 1 19.96101,20.03854 l 0.0388,-19.999782 z"
       inkscape:label="rect9" />
    <path
       id="rect10-4-6-0"
       style="stroke-width:0.56169"
       d="m 109.76581,169.88124 h 170.86883 v 10.55034 H 109.76581 Z" />
    <path
       id="rect10-4-6-0-7"
       style="stroke-width:0.554141"
       d="m 111.11966,140.12847 h 166.30692 v 10.55034 H 111.11966 Z" />
    <path
       id="pad1"
       style="stroke-width:2.10006"
       d="M -60,-60 H 360 V -1.175e-7 H -60 Z"
       inkscape:label="pad" />
    <path
       id="pad4"
       style="stroke-width:1.44918"
       d="M -60,0 H 0 V 200 h -60 z"
       inkscape:label="pad" />
    <path
       id="pad2"
       style="stroke-width:1.44918"
       d="m 300,0 h 60 V 200 h -60 z"
       inkscape:label="pad" />
    <path
       id="pad3"
       style="stroke-width:2.1171"
       d="M -60.325851,199.75494 H 359.67415 v 60.97755 H -60.325851 Z"
       inkscape:label="pad" />
    <path
       id="g_hole"
       style="fill:#668000;stroke-width:0.264583"
       d="m 289.86954,0.67276873 a 10,10 0 0 0 -9.9999,9.99990927 10,10 0 0 0 9.9999,10.00042 10,10 0 0 0 9.99991,-10.00042 10,10 0 0 0 -9.99991,-9.99990927 z m 0,0.99993997 a 9,9 0 0 1 8.99997,8.9999693 9,9 0 0 1 -8.99997,8.99997 9,9 0 0 1 -8.99996,-8.99997 9,9 0 0 1 8.99996,-8.9999693 z"
       inkscape:label="g_hole" />
    <path
       id="b_hole"
       style="fill:#aa0000;stroke-width:0.264583"
       d="m 76.871443,182.77784 a 10,10 0 0 0 -14.14202,1e-5 10,10 0 0 0 -3.6e-4,14.14236 10,10 0 0 0 14.14238,-3.6e-4 10,10 0 0 0 0,-14.14201 z m -1.08818,0.38149 -5.98283,5.98282 -5.98282,-5.98281 a 9,9 0 0 1 11.96565,-10e-6 z m 0.70706,0.70706 a 9,9 0 0 1 -3.7e-4,11.96528 l -5.98245,-5.98245 z m -13.37977,0 5.98282,5.98282 -5.98246,5.98245 a 9,9 0 0 1 -3.6e-4,-11.96527 z m 6.68989,6.68988 5.98245,5.98246 a 9,9 0 0 1 -11.96492,0 z"
       inkscape:label="b_hole" />
    <path
       id="b_hole-2"
       style="fill:#aa0000;stroke-width:0.264583"
       d="m 16.500356,183.06752 a 10,10 0 0 0 -14.1420201,1e-5 10,10 0 0 0 -3.6e-4,14.14236 10,10 0 0 0 14.1423801,-3.6e-4 10,10 0 0 0 0,-14.14201 z m -1.08818,0.38149 -5.9828301,5.98282 -5.98282,-5.98281 a 9,9 0 0 1 11.9656501,-1e-5 z m 0.70706,0.70706 a 9,9 0 0 1 -3.7e-4,11.96528 l -5.98245,-5.98245 z m -13.3797701,0 5.98282,5.98282 -5.98246,5.98245 a 9,9 0 0 1 -3.6e-4,-11.96527 z m 6.68989,6.68988 5.9824501,5.98246 a 9,9 0 0 1 -11.9649201,0 z"
       inkscape:label="b_hole" />
    <path
       id="b_hole-61"
       style="fill:#aa0000;stroke-width:0.264583"
       d="m 295.62539,94.410301 a 10,10 0 0 0 -14.14202,10e-6 10,10 0 0 0 -3.6e-4,14.142369 10,10 0 0 0 14.14238,-3.6e-4 10,10 0 0 0 0,-14.142019 z m -1.08818,0.38149 -5.98283,5.982819 -5.98282,-5.982809 a 9,9 0 0 1 11.96565,-1e-5 z m 0.70706,0.70706 a 9,9 0 0 1 -3.7e-4,11.965289 l -5.98245,-5.98245 z m -13.37977,0 5.98282,5.982829 -5.98246,5.98245 a 9,9 0 0 1 -3.6e-4,-11.965279 z m 6.68989,6.689889 5.98245,5.98246 a 9,9 0 0 1 -11.96492,0 z"
       inkscape:label="b_hole" />
    <path
       id="b_hole-61-5"
       style="fill:#aa0000;stroke-width:0.264583"
       d="m 277.14218,152.98492 a 10,10 0 0 0 -14.14202,1e-5 10,10 0 0 0 -3.6e-4,14.14237 10,10 0 0 0 14.14238,-3.6e-4 10,10 0 0 0 0,-14.14202 z m -1.08818,0.38149 -5.98283,5.98282 -5.98282,-5.98281 a 9,9 0 0 1 11.96565,-1e-5 z m 0.70706,0.70706 a 9,9 0 0 1 -3.7e-4,11.96529 l -5.98245,-5.98245 z m -13.37977,0 5.98282,5.98283 -5.98246,5.98245 a 9,9 0 0 1 -3.6e-4,-11.96528 z m 6.68989,6.68989 5.98245,5.98246 a 9,9 0 0 1 -11.96492,0 z"
       inkscape:label="b_hole" />
    <path
       id="b_hole-1"
       style="fill:#aa0000;stroke-width:0.264583"
       d="m 112.82092,94.413023 a 10,10 0 0 0 -14.14203,1e-5 10,10 0 0 0 -3.6e-4,14.142357 10,10 0 0 0 14.14239,-3.6e-4 10,10 0 0 0 0,-14.142007 z m -1.08819,0.38149 -5.98283,5.982817 -5.98282,-5.982807 a 9,9 0 0 1 11.96565,-1e-5 z m 0.70707,0.70706 a 9,9 0 0 1 -3.7e-4,11.965277 l -5.98247,-5.98245 z m -13.37978,0 5.98282,5.982817 -5.98246,5.98245 a 9,9 0 0 1 -3.6e-4,-11.965267 z m 6.68989,6.689877 5.98245,5.98246 a 9,9 0 0 1 -11.96492,0 z"
       inkscape:label="b_hole" />
    <path
       id="b_hole-0"
       style="fill:#aa0000;stroke-width:0.264583"
       d="m 196.86768,63.537558 a 10,10 0 0 0 -14.14202,1e-5 10,10 0 0 0 -3.6e-4,14.142363 10,10 0 0 0 14.14238,-3.6e-4 10,10 0 0 0 0,-14.142013 z m -1.08818,0.38149 -5.98283,5.982823 -5.98282,-5.982813 a 9,9 0 0 1 11.96565,-1e-5 z m 0.70706,0.70706 a 9,9 0 0 1 -3.7e-4,11.965283 l -5.98245,-5.98245 z m -13.37977,0 5.98282,5.982823 -5.98246,5.98245 a 9,9 0 0 1 -3.6e-4,-11.965273 z m 6.68989,6.689883 5.98245,5.98246 a 9,9 0 0 1 -11.96492,0 z"
       inkscape:label="b_hole" />
    <path
       id="b_hole-8"
       style="fill:#aa0000;stroke-width:0.264583"
       d="m 47.889086,72.948198 a 10,10 0 0 0 -14.14202,10e-6 10,10 0 0 0 -3.6e-4,14.142364 10,10 0 0 0 14.14238,-3.6e-4 10,10 0 0 0 0,-14.142014 z m -1.08818,0.38149 -5.98283,5.98282 -5.98282,-5.98281 a 9,9 0 0 1 11.96565,-10e-6 z m 0.70706,0.70706 a 9,9 0 0 1 -3.7e-4,11.965284 l -5.98245,-5.982451 z m -13.37977,0 5.98282,5.982823 -5.98246,5.982451 a 9,9 0 0 1 -3.6e-4,-11.965274 z m 6.68989,6.689884 5.98245,5.98246 a 9,9 0 0 1 -11.96492,0 z"
       inkscape:label="b_hole" />
    <path
       id="b_hole-34"
       style="fill:#aa0000;stroke-width:0.264583"
       d="m 47.4566,34.884502 a 10,10 0 0 0 -14.142017,1e-5 10,10 0 0 0 -3.6e-4,14.14236 10,10 0 0 0 14.142377,-3.6e-4 10,10 0 0 0 0,-14.14201 z m -1.08818,0.38149 -5.98283,5.98282 -5.982817,-5.98281 a 9,9 0 0 1 11.965647,-1e-5 z m 0.70706,0.70706 a 9,9 0 0 1 -3.7e-4,11.96528 l -5.98245,-5.98245 z m -13.379767,0 5.982817,5.98282 -5.982457,5.98245 a 9,9 0 0 1 -3.6e-4,-11.96527 z m 6.689887,6.68988 5.98245,5.98246 a 9,9 0 0 1 -11.964917,0 z"
       inkscape:label="b_hole" />
    <path
       id="b_hole-34-2"
       style="fill:#aa0000;stroke-width:0.264583"
       d="m 298.54449,65.204954 a 10,10 0 0 0 -14.14201,1e-5 10,10 0 0 0 -3.6e-4,14.14236 10,10 0 0 0 14.14237,-3.6e-4 10,10 0 0 0 0,-14.14201 z m -1.08818,0.38149 -5.98283,5.98282 -5.98281,-5.98281 a 9,9 0 0 1 11.96564,-1e-5 z m 0.70706,0.70706 a 9,9 0 0 1 -3.7e-4,11.96528 l -5.98245,-5.98245 z m -13.37976,0 5.98281,5.98282 -5.98245,5.98245 a 9,9 0 0 1 -3.6e-4,-11.96527 z m 6.68988,6.68988 5.98245,5.98246 a 9,9 0 0 1 -11.96491,0 z"
       inkscape:label="b_hole" />
    <path
       id="b_hole-34-2-1"
       style="fill:#aa0000;stroke-width:0.264583"
       d="m 258.24013,2.6003214 a 10,10 0 0 0 -14.14201,1e-5 10,10 0 0 0 -3.6e-4,14.1423596 10,10 0 0 0 14.14237,-3.6e-4 10,10 0 0 0 0,-14.1420096 z m -1.08818,0.38149 -5.98283,5.98282 -5.98281,-5.98281 a 9,9 0 0 1 11.96564,-1e-5 z m 0.70706,0.70706 a 9,9 0 0 1 -3.7e-4,11.9652796 l -5.98245,-5.9824496 z m -13.37976,0 5.98281,5.98282 -5.98245,5.9824496 a 9,9 0 0 1 -3.6e-4,-11.9652696 z m 6.68988,6.6898796 5.98245,5.98246 a 9,9 0 0 1 -11.96491,0 z"
       inkscape:label="b_hole" />
    <path
       id="b_hole-34-2-1-4"
       style="fill:#aa0000;stroke-width:0.264583"
       d="m 296.65101,33.226671 a 10,10 0 0 0 -14.14201,10e-6 10,10 0 0 0 -3.6e-4,14.14236 10,10 0 0 0 14.14237,-3.6e-4 10,10 0 0 0 0,-14.14201 z m -1.08818,0.38149 -5.98283,5.98282 -5.98281,-5.98281 a 9,9 0 0 1 11.96564,-10e-6 z m 0.70706,0.70706 a 9,9 0 0 1 -3.7e-4,11.96528 l -5.98245,-5.98245 z m -13.37976,0 5.98281,5.98282 -5.98245,5.98245 a 9,9 0 0 1 -3.6e-4,-11.96527 z m 6.68988,6.68988 5.98245,5.98246 a 9,9 0 0 1 -11.96491,0 z"
       inkscape:label="b_hole" />
    <path
       id="rect10-4-6-0-2-6"
       style="stroke-width:0.495384"
       d="m 169.93566,107.87698 h 109.28305 v 12.83129 H 169.93566 Z" />
    <path
       id="rect10-4-6-0-4"
       style="stroke-width:0.363304"
       d="m 79.528496,80.446993 h 71.484394 v 10.55034 H 79.528496 Z" />
    <path
       id="rect10-4-6-0-4-7"
       style="stroke-width:0.264612"
       d="m 49.788902,169.30348 h 37.92178 v 10.55034 h -37.92178 z" />
    <path
       id="rect10-4-6-0-4-2"
       style="stroke-width:0.490805"
       d="m 169.46776,80.142939 h 130.46335 v 10.55034 H 169.46776 Z" />
    <path
       id="rect10-4-6-0-1"
       style="stroke-width:0.27792"
       d="m 19.213437,51.086414 h 41.831988 v 10.55034 H 19.213437 Z" />
    <path
       id="rect10-4-6-0-1-8"
       style="stroke-width:0.273555"
       d="m 260.12368,50.941202 h 40.52858 v 10.55034 h -40.52858 z" />
    <path
       id="rect10-4-6-0-73"
       style="stroke-width:0.239551"
       d="m 20.091651,20.169191 h 31.078911 v 10.55034 H 20.091651 Z" />
    <path
       id="rect10-4-6-0-73-8"
       style="stroke-width:0.359141"
       d="m 60.521579,20.227293 h 69.855131 v 10.55034 H 60.521579 Z" />
    <path
       id="rect10-4-6-0-73-8-9"
       style="stroke-width:0.333967"
       d="m 149.87224,20.508665 h 60.40547 v 10.55034 h -60.40547 z" />
    <path
       id="rect10-4-6-0-73-8-4"
       style="stroke-width:0.404819"
       d="m 80.7724,49.860184 h 88.75447 v 10.55034 H 80.7724 Z" />
    <path
       id="rect10-4-6-0-9"
       style="stroke-width:0.456766"
       d="M 19.560201,61.042126 H 30.436379 V 170.65105 H 19.560201 Z" />
    <path
       id="rect10-4-6-0-9-3-7"
       style="stroke-width:0.412529"
       d="m 80.000889,113.22587 h 10.876178 v 89.40619 H 80.000889 Z" />
    <path
       id="rect10-4-6-0-9-3-4-5"
       style="stroke-width:0.282179"
       d="m 169.46319,49.655026 h 10.87618 v 41.832 h -10.87618 z" />
    <path
       id="rect10-4-6-0-9-3-4-5-4"
       style="stroke-width:0.329812"
       d="m 140.35938,91.182385 h 10.87618 v 57.146975 h -10.87618 z" />
    <path
       id="rect10-4-6-0-9-3-4-5-6"
       style="stroke-width:0.273245"
       d="m 230.07774,21.480768 h 10.87618 v 39.225201 h -10.87618 z" />
    <path
       id="rect10-4-6-0-9-2"
       style="stroke-width:0.416271"
       d="m 50.05805,20.21367 h 10.876178 v 91.03544 H 50.05805 Z" />
    <path
       id="rect10-4-6-0-9-2-6"
       style="stroke-width:0.265182"
       d="m 230.12906,-4.702083 h 10.87618 v 36.944242 h -10.87618 z" />
    <path
       id="rect10-4-6-0-9-2-8"
       style="stroke-width:0.255655"
       d="M 49.902382,138.73389 H 60.77856 v 34.33743 H 49.902382 Z" />
    <path
       id="rect10-4-6-0-9-2-2"
       style="stroke-width:0.238067"
       d="m 79.529826,84.857793 h 10.87618 v 29.775517 h -10.87618 z" />
    <path
       id="rect10-4-6-0-9-2-2-7"
       style="stroke-width:0.288599"
       d="M 80.329907,111.11509 H 122.8136 v 11.20203 H 80.329907 Z" />
    <path
       id="b_hole-6"
       style="fill:#aa0000;stroke-width:0.264583"
       d="m 178.22661,32.945746 a 10,10 0 0 0 -14.14202,1e-5 10,10 0 0 0 -3.6e-4,14.14236 10,10 0 0 0 14.14238,-3.6e-4 10,10 0 0 0 0,-14.14201 z m -1.08818,0.38149 -5.98283,5.98282 -5.98282,-5.98281 a 9,9 0 0 1 11.96565,-1e-5 z m 0.70706,0.70706 a 9,9 0 0 1 -3.7e-4,11.96528 l -5.98245,-5.98245 z m -13.37977,0 5.98282,5.98282 -5.98246,5.98245 a 9,9 0 0 1 -3.6e-4,-11.96527 z m 6.68989,6.68988 5.98245,5.98246 a 9,9 0 0 1 -11.96492,0 z"
       inkscape:label="b_hole" />
    <path
       id="b_hole-6-2"
       style="fill:#aa0000;stroke-width:0.264583"
       d="m 78.282148,32.374824 a 10,10 0 0 0 -14.142023,1e-5 10,10 0 0 0 -3.6e-4,14.14236 10,10 0 0 0 14.142383,-3.6e-4 10,10 0 0 0 0,-14.14201 z m -1.08818,0.38149 -5.982833,5.98282 -5.98282,-5.98281 a 9,9 0 0 1 11.965653,-10e-6 z m 0.70706,0.70706 a 9,9 0 0 1 -3.7e-4,11.96528 l -5.982453,-5.98245 z m -13.379773,0 5.98282,5.98282 -5.98246,5.98245 a 9,9 0 0 1 -3.6e-4,-11.96527 z m 6.68989,6.68988 5.982453,5.98246 a 9,9 0 0 1 -11.964923,0 z"
       inkscape:label="b_hole" />
  </g>
</svg>
