<?xml version="1.0" encoding="UTF-8" standalone="no"?>
<!-- Created with Inkscape (http://www.inkscape.org/) -->

<svg
   width="420mm"
   height="320mm"
   viewBox="0 0 420 320"
   version="1.1"
   id="svg1"
   inkscape:version="1.4 (86a8ad7, 2024-10-11)"
   sodipodi:docname="level_1.svg"
   inkscape:export-filename="Desktop\level_template.svg"
   inkscape:export-xdpi="96"
   inkscape:export-ydpi="96"
   xmlns:inkscape="http://www.inkscape.org/namespaces/inkscape"
   xmlns:sodipodi="http://sodipodi.sourceforge.net/DTD/sodipodi-0.dtd"
   xmlns="http://www.w3.org/2000/svg"
   xmlns:svg="http://www.w3.org/2000/svg">
  <sodipodi:namedview
     id="namedview1"
     pagecolor="#bfbfbf"
     bordercolor="#eeeeee"
     borderopacity="1"
     inkscape:showpageshadow="0"
     inkscape:pageopacity="0"
     inkscape:pagecheckerboard="true"
     inkscape:deskcolor="#505050"
     inkscape:document-units="mm"
     inkscape:lockguides="false"
     showguides="true"
     showgrid="true"
     inkscape:clip-to-page="false"
     inkscape:zoom="0.8119774"
     inkscape:cx="712.45825"
     inkscape:cy="556.04996"
     inkscape:window-width="1920"
     inkscape:window-height="1009"
     inkscape:window-x="1912"
     inkscape:window-y="-8"
     inkscape:window-maximized="1"
     inkscape:current-layer="layer1">
    <inkscape:grid
       id="grid1"
       units="mm"
       originx="59.999999"
       originy="59.999999"
       spacingx="0.99999999"
       spacingy="0.99999998"
       empcolor="#0099e5"
       empopacity="0.30196078"
       color="#56e500"
       opacity="0.14901961"
       empspacing="10"
       dotted="false"
       gridanglex="30"
       gridanglez="30"
       visible="true"
       snapvisiblegridlinesonly="true" />
  </sodipodi:namedview>
  <defs
     id="defs1" />
  <g
     inkscape:label="Layer 1"
     inkscape:groupmode="layer"
     id="layer1"
     transform="translate(60,60)">
    <path
       id="rect9"
       style="fill:#000000;stroke-width:0.264583"
       d="M 259.83088,200.32936 A 20,20 0 0 1 240.31347,179.8585 l -0.47673,19.99413 z"
       inkscape:label="rect9" />
    <path
       id="rect9-3"
       style="fill:#000000;stroke-width:0.264583"
       d="m 120.59552,120.07198 a 20,20 0 0 1 -20.2589,-19.73734 l 0.26078,19.99812 z"
       inkscape:label="rect9" />
    <path
       id="rect10"
       style="stroke-width:0.5892"
       d="m 20.144856,0.224481 h 20 V 99.40618 h -20 z" />
    <path
       id="rect10-8"
       style="stroke-width:0.527943"
       d="m 20.052106,120.26343 h 20 v 79.63066 h -20 z" />
    <path
       id="rect10-8-5"
       style="stroke-width:0.749386"
       d="M 60.468482,120.23663 H 220.91009 v 19.99999 H 60.468482 Z" />
    <path
       id="rect10-8-5-16"
       style="stroke-width:0.601736"
       d="M 129.68584,-1.2189771 H 150.0117 V 100.56952 h -20.32586 z" />
    <path
       id="rect10-8-5-1"
       style="stroke-width:0.756065"
       d="M 79.961416,21.20617 H 100.61311 V 179.36682 H 79.961416 Z"
       sodipodi:nodetypes="ccccc" />
    <path
       id="rect10-8-5-1-2"
       style="stroke-width:0.661343"
       d="m 219.66554,80.348535 h 20.65169 V 201.36221 h -20.65169 z"
       sodipodi:nodetypes="ccccc" />
    <path
       id="rect10-8-5-1-2-6"
       style="stroke-width:0.374956"
       d="m 219.88469,0.31770839 h 20.65169 V 39.217035 h -20.65169 z"
       sodipodi:nodetypes="ccccc"
       inkscape:transform-center-x="-64.192571"
       inkscape:transform-center-y="-8.4241814" />
    <path
       id="rect10-8-5-1-2-6-3"
       style="stroke-width:0.391434"
       d="m 260.12589,80.985729 h 39.87687 v 21.955101 h -39.87687 z"
       sodipodi:nodetypes="ccccc"
       inkscape:transform-center-x="-123.95107"
       inkscape:transform-center-y="-4.7546758" />
    <path
       id="pad1"
       style="stroke-width:2.10006"
       d="M -60,-60 H 360 V -1.175e-7 H -60 Z"
       inkscape:label="pad" />
    <path
       id="pad4"
       style="stroke-width:1.44918"
       d="M -60,0 H 0 V 200 h -60 z"
       inkscape:label="pad" />
    <path
       id="pad2"
       style="stroke-width:1.44918"
       d="m 300,0 h 60 V 200 h -60 z"
       inkscape:label="pad" />
    <path
       id="pad3"
       style="stroke-width:2.10006"
       d="m -60,200 h 420 v 60 H -60 Z"
       inkscape:label="pad" />
    <path
       id="g_hole"
       style="fill:#668000;stroke-width:0.264583"
       d="m 289.86954,1.2019354 a 10,10 0 0 0 -9.9999,9.9999096 10,10 0 0 0 9.9999,10.00042 10,10 0 0 0 9.99991,-10.00042 10,10 0 0 0 -9.99991,-9.9999096 z m 0,0.99994 a 9,9 0 0 1 8.99997,8.9999696 9,9 0 0 1 -8.99997,8.99997 9,9 0 0 1 -8.99996,-8.99997 9,9 0 0 1 8.99996,-8.9999696 z"
       inkscape:label="g_hole" />
    <path
       id="b_hole"
       style="fill:#aa0000;stroke-width:0.264583"
       d="m 17.708217,3.1533646 a 10,10 0 0 0 -14.1420103,7e-6 10,10 0 0 0 -3.6e-4,14.1423624 10,10 0 0 0 14.1423703,-3.61e-4 10,10 0 0 0 0,-14.1420084 z m -1.08818,0.381484 -5.98283,5.982823 -5.9828103,-5.982816 a 9,9 0 0 1 11.9656403,-7e-6 z m 0.70706,0.707064 a 9,9 0 0 1 -3.7e-4,11.9652804 l -5.98245,-5.982456 z m -13.3797603,0 5.98281,5.9828174 -5.98245,5.982455 a 9,9 0 0 1 -3.6e-4,-11.9652724 z m 6.6898803,6.6898814 5.98245,5.982456 a 9,9 0 0 1 -11.9649103,0 z"
       inkscape:label="b_hole" />
    <path
       id="b_hole-2"
       style="fill:#aa0000;stroke-width:0.264583"
       d="m 57.250306,2.9865576 a 10,10 0 0 0 -14.14201,7e-6 10,10 0 0 0 -3.6e-4,14.1423624 10,10 0 0 0 14.14237,-3.61e-4 10,10 0 0 0 0,-14.1420084 z m -1.08818,0.381484 -5.98283,5.9828234 -5.98281,-5.9828164 a 9,9 0 0 1 11.96564,-7e-6 z m 0.70706,0.707064 a 9,9 0 0 1 -3.7e-4,11.9652804 l -5.98245,-5.982456 z m -13.37976,0 5.98281,5.9828174 -5.98245,5.982455 a 9,9 0 0 1 -3.6e-4,-11.9652724 z m 6.68988,6.6898814 5.98245,5.982456 a 9,9 0 0 1 -11.96491,0 z"
       inkscape:label="b_hole" />
    <path
       id="b_hole-2-3"
       style="fill:#aa0000;stroke-width:0.264583"
       d="m 117.48591,142.79598 a 10,10 0 0 0 -14.14201,1e-5 10,10 0 0 0 -3.6e-4,14.14236 10,10 0 0 0 14.14237,-3.6e-4 10,10 0 0 0 0,-14.14201 z m -1.08818,0.38149 -5.98283,5.98282 -5.98281,-5.98281 a 9,9 0 0 1 11.96564,-1e-5 z m 0.70706,0.70706 a 9,9 0 0 1 -3.7e-4,11.96528 l -5.98245,-5.98245 z m -13.37976,0 5.98281,5.98282 -5.98245,5.98246 a 9,9 0 0 1 -3.6e-4,-11.96528 z m 6.68988,6.68988 5.98245,5.98246 a 9,9 0 0 1 -11.96491,0 z"
       inkscape:label="b_hole" />
    <path
       id="b_hole-3"
       style="fill:#aa0000;stroke-width:0.264583"
       d="m 217.9169,183.85589 a 10,10 0 0 0 -14.14201,0 10,10 0 0 0 -3.6e-4,14.14237 10,10 0 0 0 14.14237,-3.7e-4 10,10 0 0 0 0,-14.142 z m -1.08818,0.38148 -5.98283,5.98282 -5.98281,-5.98281 a 9,9 0 0 1 11.96564,-1e-5 z m 0.70706,0.70706 a 9,9 0 0 1 -3.7e-4,11.96528 l -5.98245,-5.98245 z m -13.37976,0 5.98281,5.98282 -5.98245,5.98246 a 9,9 0 0 1 -3.6e-4,-11.96528 z m 6.68988,6.68989 5.98245,5.98245 a 9,9 0 0 1 -11.96491,0 z"
       inkscape:label="b_hole" />
    <path
       id="b_hole-7"
       style="fill:#aa0000;stroke-width:0.264583"
       d="m 296.74822,183.22959 a 10,10 0 0 0 -14.14201,1e-5 10,10 0 0 0 -3.6e-4,14.14236 10,10 0 0 0 14.14237,-3.6e-4 10,10 0 0 0 0,-14.14201 z m -1.08818,0.38148 -5.98283,5.98283 -5.98281,-5.98282 a 9,9 0 0 1 11.96564,-10e-6 z m 0.70706,0.70707 a 9,9 0 0 1 -3.7e-4,11.96528 l -5.98245,-5.98246 z m -13.37976,0 5.98281,5.98282 -5.98245,5.98245 a 9,9 0 0 1 -3.6e-4,-11.96527 z m 6.68988,6.68988 5.98245,5.98246 a 9,9 0 0 1 -11.96491,0 z"
       inkscape:label="b_hole" />
  </g>
</svg>
