<?xml version="1.0" encoding="UTF-8" standalone="no"?>
<!-- Created with Inkscape (http://www.inkscape.org/) -->

<svg
   width="1200"
   height="750"
   viewBox="0 0 317.5 198.4375"
   version="1.1"
   id="svg1"
   inkscape:version="1.3.2 (091e20e, 2023-11-25, custom)"
   sodipodi:docname="level_template.svg"
   inkscape:export-filename="level_template.svg"
   inkscape:export-xdpi="96"
   inkscape:export-ydpi="96"
   xmlns:inkscape="http://www.inkscape.org/namespaces/inkscape"
   xmlns:sodipodi="http://sodipodi.sourceforge.net/DTD/sodipodi-0.dtd"
   xmlns="http://www.w3.org/2000/svg"
   xmlns:svg="http://www.w3.org/2000/svg">
  <sodipodi:namedview
     id="namedview1"
     pagecolor="#bfbfbf"
     bordercolor="#eeeeee"
     borderopacity="1"
     inkscape:showpageshadow="0"
     inkscape:pageopacity="0"
     inkscape:pagecheckerboard="true"
     inkscape:deskcolor="#505050"
     inkscape:document-units="px"
     inkscape:lockguides="false"
     showguides="true"
     showgrid="true"
     inkscape:clip-to-page="false"
     inkscape:zoom="1.6239548"
     inkscape:cx="720.4634"
     inkscape:cy="337.13993"
     inkscape:window-width="2560"
     inkscape:window-height="1566"
     inkscape:window-x="-11"
     inkscape:window-y="-11"
     inkscape:window-maximized="1"
     inkscape:current-layer="layer1">
    <inkscape:grid
       id="grid1"
       units="px"
       originx="0"
       originy="0"
       spacingx="0.26458333"
       spacingy="0.26458333"
       empcolor="#0099e5"
       empopacity="0.30196078"
       color="#56e500"
       opacity="0.14901961"
       empspacing="50"
       dotted="false"
       gridanglex="30"
       gridanglez="30"
       visible="true"
       snapvisiblegridlinesonly="true" />
  </sodipodi:namedview>
  <defs
     id="defs1" />
  <g
     inkscape:label="Layer 1"
     inkscape:groupmode="layer"
     id="layer1">
    <path
       id="rect9"
       style="fill:#000000;stroke-width:0.350024"
       d="M 39.6875,13.229167 A 26.458581,26.458579 0 0 1 13.229167,39.6875 H 39.6875 Z"
       inkscape:label="rect9" />
    <path
       id="rect10"
       style="stroke-width:0.350021"
       d="M 52.916667,13.229167 H 79.375 V 39.6875 H 52.916667 Z" />
    <path
       id="marker_start"
       style="fill:#008000;stroke-width:0.35002"
       d="M 105.83333,13.229167 A 13.22929,13.228948 0 0 0 92.604167,26.457992 13.22929,13.228948 0 0 0 105.83333,39.6875 13.22929,13.228948 0 0 0 119.0625,26.457992 13.22929,13.228948 0 0 0 105.83333,13.229167 Z m 0,1.322814 a 11.906361,11.906054 0 0 1 11.90632,11.906011 11.906361,11.906054 0 0 1 -11.90632,11.90601 11.906361,11.906054 0 0 1 -11.906313,-11.90601 11.906361,11.906054 0 0 1 11.906313,-11.906011 z"
       inkscape:label="marker_start" />
    <path
       id="marker_goal"
       style="fill:#008000;stroke-width:0.35002"
       inkscape:label="marker_goal"
       d="M 185.20834,13.229167 A 13.229286,13.228965 0 0 0 171.97917,26.457984 13.229286,13.228965 0 0 0 185.20834,39.6875 13.229286,13.228965 0 0 0 198.4375,26.457984 13.229286,13.228965 0 0 0 185.20834,13.229167 Z m 0,1.323002 a 11.906357,11.906069 0 0 1 11.90631,11.906015 11.906357,11.906069 0 0 1 -11.90631,11.906015 11.906357,11.906069 0 0 1 -11.90632,-11.906015 11.906357,11.906069 0 0 1 11.90632,-11.906015 z m 0,5.292006 a 6.6146429,6.6144824 0 0 0 -6.61492,6.614009 6.6146429,6.6144824 0 0 0 6.61492,6.615008 6.6146429,6.6144824 0 0 0 6.61492,-6.615008 6.6146429,6.6144824 0 0 0 -6.61492,-6.614009 z" />
    <path
       id="marker_hole"
       style="fill:#aa0000;stroke-width:0.35002"
       d="m 154.87537,17.10379 a 13.229098,13.229099 0 0 0 -18.7086,10e-6 13.229098,13.229099 0 0 0 -4.8e-4,18.70907 13.229098,13.229099 0 0 0 18.70908,-4.77e-4 13.229098,13.229099 0 0 0 0,-18.708603 z m -1.43956,0.504669 -7.91475,7.914736 -7.91472,-7.914726 a 11.906188,11.906189 0 0 1 15.82947,-10e-6 z m 0.93537,0.935382 a 11.906188,11.906189 0 0 1 -4.9e-4,15.828987 l -7.91424,-7.91425 z m -17.70021,0 7.91471,7.914728 -7.91424,7.914249 a 11.906188,11.906189 0 0 1 -4.7e-4,-15.828977 z m 8.8501,8.85011 7.91425,7.91425 a 11.906188,11.906189 0 0 1 -15.8285,0 z"
       inkscape:label="marker_hole" />
  </g>
</svg>
