<?xml version="1.0" encoding="UTF-8" standalone="no"?>
<!-- Created with Inkscape (http://www.inkscape.org/) -->

<svg
   width="420mm"
   height="320mm"
   viewBox="0 0 420 320"
   version="1.1"
   id="svg1"
   inkscape:version="1.4 (86a8ad7, 2024-10-11)"
   sodipodi:docname="level_1.svg"
   inkscape:export-filename="Desktop\level_template.svg"
   inkscape:export-xdpi="96"
   inkscape:export-ydpi="96"
   xmlns:inkscape="http://www.inkscape.org/namespaces/inkscape"
   xmlns:sodipodi="http://sodipodi.sourceforge.net/DTD/sodipodi-0.dtd"
   xmlns="http://www.w3.org/2000/svg"
   xmlns:svg="http://www.w3.org/2000/svg">
  <sodipodi:namedview
     id="namedview1"
     pagecolor="#bfbfbf"
     bordercolor="#eeeeee"
     borderopacity="1"
     inkscape:showpageshadow="0"
     inkscape:pageopacity="0"
     inkscape:pagecheckerboard="true"
     inkscape:deskcolor="#505050"
     inkscape:document-units="mm"
     inkscape:lockguides="false"
     showguides="true"
     showgrid="true"
     inkscape:clip-to-page="false"
     inkscape:zoom="0.8119774"
     inkscape:cx="801.13067"
     inkscape:cy="620.09115"
     inkscape:window-width="1920"
     inkscape:window-height="1009"
     inkscape:window-x="1912"
     inkscape:window-y="-8"
     inkscape:window-maximized="1"
     inkscape:current-layer="layer1">
    <inkscape:grid
       id="grid1"
       units="mm"
       originx="59.999999"
       originy="59.999999"
       spacingx="0.99999999"
       spacingy="0.99999998"
       empcolor="#0099e5"
       empopacity="0.30196078"
       color="#56e500"
       opacity="0.14901961"
       empspacing="10"
       dotted="false"
       gridanglex="30"
       gridanglez="30"
       visible="true"
       snapvisiblegridlinesonly="true" />
  </sodipodi:namedview>
  <defs
     id="defs1" />
  <g
     inkscape:label="Layer 1"
     inkscape:groupmode="layer"
     id="layer1"
     transform="translate(60,60)">
    <path
       id="rect9"
       style="fill:#000000;stroke-width:0.264583"
       d="M 0.13832314,19.883037 C 0.05936924,14.19244 2.3650487,9.024016 6.1296516,5.3294078 9.671515,1.8534077 14.504803,-0.31802496 19.858684,-0.39237447 l -19.99788666,0.27752254 z"
       inkscape:label="rect9"
       sodipodi:nodetypes="csccc" />
    <path
       id="rect9-1"
       style="fill:#000000;stroke-width:0.264583"
       d="m 19.880006,199.97718 c -5.690691,0.072 -10.8563106,-2.2399 -14.5463505,-6.00898 -3.4717003,-3.54608 -5.63726495,-8.38199 -5.70511941,-13.73596 l 0.25325794,19.9982 z"
       inkscape:label="rect9"
       sodipodi:nodetypes="csccc" />
    <path
       id="rect9-1-7"
       style="fill:#000000;stroke-width:0.264583"
       d="m 300.19896,180.28536 c -0.0413,5.691 -2.45556,10.80958 -6.29734,14.42386 -3.61449,3.40042 -8.49255,5.46931 -13.84681,5.43057 l 19.99929,0.14487 z"
       inkscape:label="rect9"
       sodipodi:nodetypes="csccc" />
    <path
       id="rect9-2"
       style="fill:#000000;stroke-width:0.264583"
       d="m 279.99782,-0.40194848 c 5.69113,0.0115552 10.82222,2.39922958 14.45645,6.22213958 3.41921,3.5967192 5.51346,8.4639479 5.50261,13.8183329 l 0.0408,-19.99976405 z"
       inkscape:label="rect9"
       sodipodi:nodetypes="csccc" />
    <path
       id="rect10-8"
       style="stroke-width:0.494477"
       d="M 90.284727,59.735042 H 110.28468 V 129.59018 H 90.284727 Z" />
    <path
       id="rect10-8-1"
       style="stroke-width:0.496778"
       d="m 190.00997,59.72054 h 20.00001 v 70.50684 h -20.00001 z" />
    <path
       id="rect10-8-5"
       style="stroke-width:0.879613"
       d="M 39.436573,19.301431 H 260.4864 v 20 H 39.436573 Z" />
    <path
       id="rect10-8-5-7"
       style="stroke-width:0.877016"
       d="M 40.501753,149.30589 H 260.24818 v 20 H 40.501753 Z" />
    <path
       id="pad1"
       style="stroke-width:2.10006"
       d="M -60,-60 H 360 V -1.175e-7 H -60 Z"
       inkscape:label="pad" />
    <path
       id="pad4"
       style="stroke-width:1.44918"
       d="M -60,0 H 0 V 200 h -60 z"
       inkscape:label="pad" />
    <path
       id="pad2"
       style="stroke-width:1.44918"
       d="m 300,0 h 60 V 200 h -60 z"
       inkscape:label="pad" />
    <path
       id="pad3"
       style="stroke-width:2.10006"
       d="m -60,200 h 420 v 60 H -60 Z"
       inkscape:label="pad" />
    <path
       id="g_hole"
       style="fill:#668000;stroke-width:0.264583"
       d="m 20.065231,80.057793 a 10,10 0 0 0 -9.9999,9.9999 10,10 0 0 0 9.9999,10.000417 10,10 0 0 0 9.99991,-10.000417 10,10 0 0 0 -9.99991,-9.9999 z m 0,0.99993 a 9,9 0 0 1 8.99997,8.99997 9,9 0 0 1 -8.99997,8.99997 9,9 0 0 1 -8.99996,-8.99997 9,9 0 0 1 8.99996,-8.99997 z"
       inkscape:label="g_hole" />
    <path
       id="b_hole"
       style="fill:#aa0000;stroke-width:0.264583"
       d="m 286.53497,83.312612 a 10,10 0 0 0 -14.14201,1e-5 10,10 0 0 0 -3.6e-4,14.14236 10,10 0 0 0 14.14237,-3.6e-4 10,10 0 0 0 0,-14.14201 z m -1.08818,0.38149 -5.98283,5.98282 -5.98281,-5.98282 a 9,9 0 0 1 11.96564,0 z m 0.70706,0.70706 a 9,9 0 0 1 -3.7e-4,11.96528 l -5.98245,-5.98246 z m -13.37976,0 5.98281,5.98282 -5.98245,5.98245 a 9,9 0 0 1 -3.6e-4,-11.96527 z m 6.68988,6.68988 5.98245,5.98246 a 9,9 0 0 1 -11.96491,0 z"
       inkscape:label="b_hole" />
  </g>
</svg>
